<svg width="42" height="42" viewBox="0 0 42 42" fill="none" xmlns="http://www.w3.org/2000/svg">
<path d="M16.7125 26.5125L31.5438 11.6813C31.8938 11.3313 32.3021 11.1562 32.7688 11.1562C33.2354 11.1562 33.6438 11.3313 33.9938 11.6813C34.3438 12.0313 34.5188 12.4472 34.5188 12.929C34.5188 13.4108 34.3438 13.8262 33.9938 14.175L17.9375 30.275C17.5875 30.625 17.1792 30.8 16.7125 30.8C16.2458 30.8 15.8375 30.625 15.4875 30.275L7.9625 22.75C7.6125 22.4 7.4445 21.9847 7.4585 21.504C7.4725 21.0233 7.65509 20.6074 8.00625 20.2562C8.35742 19.9051 8.77334 19.7301 9.254 19.7312C9.73467 19.7324 10.15 19.9074 10.5 20.2562L16.7125 26.5125Z" fill="#FF0000"/>
</svg>
